<?xml version="1.0" encoding="UTF-8" standalone="no"?>
<!-- Created with Inkscape (http://www.inkscape.org/) -->

<svg
   xmlns:dc="http://purl.org/dc/elements/1.1/"
   xmlns:cc="http://creativecommons.org/ns#"
   xmlns:rdf="http://www.w3.org/1999/02/22-rdf-syntax-ns#"
   xmlns:svg="http://www.w3.org/2000/svg"
   xmlns="http://www.w3.org/2000/svg"
   xmlns:sodipodi="http://sodipodi.sourceforge.net/DTD/sodipodi-0.dtd"
   xmlns:inkscape="http://www.inkscape.org/namespaces/inkscape"
   width="144"
   height="144"
   viewBox="0 0.1 38.099999 38.099999"
   version="1.1"
   id="svg2371"
   inkscape:version="0.92.3 (2405546, 2018-03-11)"
   sodipodi:docname="oca_logo.svg">
  <defs
     id="defs2365" />
  <sodipodi:namedview
     id="base"
     pagecolor="#ffffff"
     bordercolor="#666666"
     borderopacity="1.0"
     inkscape:pageopacity="0.0"
     inkscape:pageshadow="2"
     inkscape:zoom="3.959798"
     inkscape:cx="105.4315"
     inkscape:cy="65.258205"
     inkscape:document-units="mm"
     inkscape:current-layer="layer1"
     showgrid="false"
     fit-margin-top="0"
     fit-margin-left="0"
     fit-margin-right="0"
     fit-margin-bottom="0"
     inkscape:window-width="1920"
     inkscape:window-height="1025"
     inkscape:window-x="0"
     inkscape:window-y="27"
     inkscape:window-maximized="1"
     scale-x="1"
     viewbox-y="0"
     units="px" />
  <metadata
     id="metadata2368">
    <rdf:RDF>
      <cc:Work
         rdf:about="">
        <dc:format>image/svg+xml</dc:format>
        <dc:type
           rdf:resource="http://purl.org/dc/dcmitype/StillImage" />
        <dc:title></dc:title>
      </cc:Work>
    </rdf:RDF>
  </metadata>
  <g
     inkscape:label="Capa 1"
     inkscape:groupmode="layer"
     id="layer1"
     transform="translate(33.360572,-133.57908)">
    <path
       inkscape:connector-curvature="0"
       id="path412"
       style="fill:#8e8f8f;fill-opacity:1;fill-rule:nonzero;stroke:none;stroke-width:0.20271553"
       d="m -19.68466,153.33851 c -0.0018,-2.97768 2.072159,-5.45061 4.910379,-6.00302 1.851197,-0.36063 3.435621,0.16096 4.8797662,1.284 0.2773152,0.2157 0.5193552,0.44841 0.6523392,0.78959 0.2746764,0.70545 -0.2061624,1.45711 -0.9677634,1.49685 -0.358198,0.0186 -0.656393,-0.0988 -0.930262,-0.328 -1.153046,-0.96614 -2.444545,-1.29211 -3.875515,-0.73321 -1.417995,0.55381 -2.282982,1.88099 -2.2842,3.40844 -0.0012,1.71478 1.132573,3.18365 2.797678,3.56496 1.293122,0.29617 2.424074,-0.0664 3.395484,-0.956 0.357998,-0.32779 0.77255,-0.41334 1.2225772,-0.2388 0.4259052,0.16542 0.6878136,0.4778 0.741534,0.94487 0.052704,0.45812 -0.123252,0.83355 -0.4518528,1.13073 -0.9659394,0.87391 -2.1062134,1.36449 -3.4001464,1.49665 -2.048237,0.20921 -3.790781,-0.42469 -5.186477,-1.9404 -0.843296,-0.91545 -1.321502,-2.01194 -1.459147,-3.25438 -0.02716,-0.24468 -0.04844,-0.48814 -0.04439,-0.66228" />
    <path
       inkscape:connector-curvature="0"
       id="path440"
       style="fill:#8e8f8f;fill-opacity:1;fill-rule:nonzero;stroke:none;stroke-width:0.20271553"
       d="m -2.525906,156.90681 c -2.0020212,-0.002 -3.5929332,-1.62416 -3.5900952,-3.66104 0.00288,-2.04499 1.6079448,-3.66834 3.6217176,-3.66266 1.96532682,0.006 3.621108,1.64888 3.5955652,3.61684 -0.027352,2.11494 -1.69429822,3.73869 -3.6271876,3.70686 m 6.0137558,-3.76544 c -5.76e-4,-0.23576 -0.01948,-0.47395 -0.054934,-0.70706 -0.2300818,-1.50639 -0.919116,-2.76768 -2.0806718,-3.75248 -1.6448343,-1.39468 -3.5075852,-1.82971 -5.5852224,-1.17656 -2.4275164,0.76302 -4.0762012,2.79282 -4.2521572,5.30406 -0.1354164,1.93268 0.500298,3.59495 1.9468812,4.91503 1.7413264,1.58909 4.595152,2.08534 6.73116586,0.74154 0.28360082,-0.1782 0.58463132,-0.32881 0.88546464,-0.49645 0.090206,0.56922 0.1236543,0.66774 0.2813659,0.84552 0.3498912,0.39428 0.87533,0.53011 1.3618426,0.35172 0.469895,-0.1721 0.7682933,-0.61931 0.769104,-1.17414 0.0023,-1.61706 0.0023,-3.23412 -0.00288,-4.85118" />
    <path
       style="color:#000000;clip-rule:nonzero;display:inline;overflow:visible;visibility:visible;opacity:1;isolation:auto;mix-blend-mode:normal;color-interpolation:sRGB;color-interpolation-filters:linearRGB;solid-color:#000000;solid-opacity:1;fill:#a3498b;fill-opacity:1;fill-rule:nonzero;stroke:none;stroke-width:0.02485754;stroke-linecap:butt;stroke-linejoin:miter;stroke-miterlimit:4;stroke-dasharray:none;stroke-dashoffset:0;stroke-opacity:1;color-rendering:auto;image-rendering:auto;shape-rendering:auto;text-rendering:auto;enable-background:accumulate"
       d="m -26.246354,147.21123 a 5.976159,5.976159 0 0 0 -5.976193,5.97612 5.976159,5.976159 0 0 0 5.976193,5.9762 5.976159,5.976159 0 0 0 5.976119,-5.9762 5.976159,5.976159 0 0 0 -5.976119,-5.97612 z m 0,2.32194 a 3.654167,3.654167 0 0 1 3.654178,3.65418 3.654167,3.654167 0 0 1 -3.654178,3.65418 3.654167,3.654167 0 0 1 -3.654176,-3.65418 3.654167,3.654167 0 0 1 3.654176,-3.65418 z"
       id="path2968"
       inkscape:connector-curvature="0" />
    <path
       inkscape:connector-curvature="0"
       style="fill:#000000;fill-opacity:1;fill-rule:nonzero;stroke:none;stroke-width:0.20271553"
       d="m -23.294252,145.26211 c -0.108048,0.24569 -0.284694,0.45487 -0.368213,0.73139 -0.10866,-0.088 -0.194284,-0.17115 -0.292195,-0.23459 -0.588078,-0.38172 -0.999893,-0.38906 -1.364174,0.01 -0.201498,0.22096 -0.230748,0.20512 -0.310011,-0.10032 -0.07643,-0.29434 -0.162804,-0.37337 -0.459376,-0.35188 -0.371172,0.0268 -0.731007,0.11364 -1.084746,0.23488 -0.38739,0.13258 -0.573752,0.4009 -0.575781,0.79702 -7.46e-4,0.16135 -0.06011,0.1512 -0.164507,0.0938 -0.07379,-0.0403 -0.150846,-0.0772 -0.218552,-0.12622 -0.273869,-0.19866 -0.553181,-0.38516 -0.871242,-0.51044 -0.898637,-0.35313 -1.946752,0.32431 -1.98182,1.28518 -0.0055,0.15285 0.03926,0.24915 0.222115,0.26963 0.298803,0.0337 0.591672,0.017 0.880743,-0.0493 0.632472,-0.14534 1.262967,-0.30084 1.894223,-0.45167 0.15832,-0.0379 0.318141,-0.0408 0.478084,-0.01 0.147171,0.0281 0.204843,0.10176 0.114024,0.24321 -0.0114,0.20271 -0.284446,0.15989 -0.319515,0.34029 0.16278,0.0764 0.269655,-0.0242 0.37831,-0.12 0.0074,-0.037 0.01446,-0.0736 0.02167,-0.11016 0.01188,-9.6e-4 0.02492,-0.004 0.04097,-0.01 0.08534,-0.0659 0.168168,-0.14187 0.286553,-0.13214 0.270625,0.0218 0.525948,-0.0571 0.785424,-0.1122 0.01895,-0.005 0.03626,-0.012 0.05345,-0.0187 0.09061,0.066 0.156665,0.15107 0.179653,0.26873 0.08068,0.11772 0.115824,0.30728 0.334956,0.22093 0.0038,-0.1008 -0.102024,-0.108 -0.128579,-0.17491 -0.137923,-0.10128 -0.151065,-0.30657 -0.314168,-0.38692 0.01056,-0.13034 0.108492,-0.10056 0.194499,-0.092 0.167105,0.0167 0.31776,0.11568 0.490259,0.10368 0.01555,0.0814 0.04841,0.14866 0.132736,0.17283 -0.01946,0.11592 0.04274,0.19131 0.127687,0.25537 0.09953,0.0997 0.215548,0.13465 0.352178,0.091 -0.101964,-0.16299 -0.308338,-0.22155 -0.396722,-0.39792 -0.03487,-0.0799 -0.06727,-0.16096 -0.149365,-0.20637 -5.3e-5,5e-5 -3.03e-4,-4e-5 -3.03e-4,0 -0.08514,-0.12913 -0.256527,-0.1176 -0.359305,-0.21795 0.217513,-0.31908 0.219545,-0.3225 0.540444,-0.14491 0.296571,0.16378 0.599584,0.31377 0.939537,0.35188 0.299413,0.0334 0.581754,0.10428 0.825216,0.28595 0.119808,0.0895 0.138286,0.005 0.167478,-0.0775 0.06731,-0.18893 -0.0125,-0.3578 -0.108384,-0.50154 -0.130548,-0.19521 -0.09076,-0.35695 -0.0068,-0.5544 0.08899,-0.20879 0.164529,-0.17993 0.298728,-0.054 0.431985,0.40342 0.879837,0.79111 1.21837,1.2837 0.0444,0.0644 0.08951,0.16156 0.193907,0.13096 0.110676,-0.0329 0.10566,-0.13697 0.111948,-0.23043 0.0062,-0.1 -0.02628,-0.18165 -0.100068,-0.24854 -0.555439,-0.50538 -1.052501,-1.07258 -1.638552,-1.54531 z"
       id="path420" />
  </g>
</svg>
